<?xml version="1.0" standalone="no"?>
<!DOCTYPE svg PUBLIC "-//W3C//DTD SVG 20010904//EN"
 "http://www.w3.org/TR/2001/REC-SVG-20010904/DTD/svg10.dtd">
<svg version="1.0" xmlns="http://www.w3.org/2000/svg"
 width="16.000000pt" height="16.000000pt" viewBox="0 0 16.000000 16.000000"
 preserveAspectRatio="xMidYMid meet">
<metadata>
Created by potrace 1.11, written by Peter Selinger 2001-2013
</metadata>
<g transform="translate(0.000000,16.000000) scale(0.008000,-0.008000)"
fill="#000000" stroke="none">
<path d="M1699 1683 c-1 -4 -1 -12 0 -17 1 -5 -5 -3 -14 4 -9 7 -15 9 -14 4 1
-5 1 -15 0 -23 -1 -11 -4 -11 -18 0 -15 13 -15 12 -4 -8 9 -19 9 -22 -3 -17
-10 4 -15 -3 -18 -23 -2 -16 -8 -27 -16 -25 -9 2 -10 -3 -4 -15 7 -16 9 -74 2
-88 -1 -3 -3 -11 -4 -17 -1 -7 -6 -12 -12 -11 -5 1 -9 -23 -9 -54 1 -30 -3
-57 -7 -59 -5 -3 -5 -11 -1 -17 12 -19 13 -46 3 -52 -6 -4 -7 -12 -3 -18 3 -7
-3 -3 -16 7 -12 11 -19 26 -16 34 3 9 -1 12 -15 7 -11 -4 -20 -2 -20 4 0 6 5
11 11 11 5 0 7 5 3 11 -5 8 -8 8 -14 0 -4 -7 -13 -11 -21 -9 -20 5 -38 22 -31
32 3 5 0 6 -7 2 -6 -4 -9 -11 -6 -16 3 -5 0 -12 -6 -16 -7 -4 -9 -3 -6 3 4 6
0 13 -7 16 -8 3 -16 1 -18 -5 -2 -6 -12 -12 -21 -14 -9 -1 -15 2 -11 7 3 5 10
6 16 3 7 -4 8 -2 4 4 -8 13 -36 5 -36 -12 0 -6 -5 -4 -10 4 -8 13 -11 13 -22
1 -11 -11 -11 -13 1 -6 9 5 12 4 8 -2 -3 -5 -16 -9 -29 -7 -13 1 -27 3 -31 3
-5 1 -5 6 -1 13 5 7 3 8 -5 4 -7 -5 -10 -13 -8 -20 3 -7 -4 -13 -14 -13 -10
-1 -19 3 -19 8 0 6 4 8 8 5 5 -3 9 1 9 9 0 22 -15 18 -22 -6 -6 -17 -9 -19
-16 -8 -5 8 -9 9 -9 3 0 -7 -7 -15 -16 -18 -14 -5 -15 -4 -5 7 9 11 7 17 -6
28 -17 13 -17 13 -3 -5 14 -18 13 -19 -3 -13 -13 5 -20 0 -27 -16 -8 -20 -9
-21 -10 -2 l-1 20 -9 -20 c-5 -11 -9 -14 -9 -6 -1 10 -4 11 -15 2 -8 -6 -18
-11 -22 -10 -23 4 -35 -2 -28 -13 6 -10 5 -10 -7 -1 -12 10 -18 10 -29 0 -7
-6 -10 -7 -7 -2 3 6 -4 17 -16 25 -21 12 -21 12 -7 -5 14 -17 13 -18 -4 -12
-15 6 -17 5 -8 -6 9 -11 7 -13 -8 -12 -11 1 -23 4 -26 8 -11 10 -26 8 -19 -2
3 -5 0 -13 -6 -17 -8 -4 -9 -3 -5 4 4 7 4 12 -1 13 -49 5 -60 3 -56 -7 5 -13
-14 -13 -35 0 -8 5 -20 2 -30 -6 -20 -17 -56 -12 -45 5 4 7 0 7 -10 -1 -9 -8
-21 -11 -27 -7 -5 3 -10 2 -10 -4 0 -5 6 -12 13 -14 9 -4 9 -6 0 -6 -6 -1 -15
4 -18 9 -5 8 -11 8 -20 0 -17 -14 -57 -22 -50 -9 4 5 12 6 18 3 7 -4 9 -3 4 1
-8 10 -48 15 -43 6 2 -3 -2 -12 -10 -19 -8 -7 -14 -10 -14 -6 0 3 -6 1 -14 -5
-9 -8 -16 -8 -20 -2 -4 6 -14 7 -23 4 -12 -5 -14 -3 -9 8 5 8 2 8 -6 -2 -7 -9
-21 -15 -31 -13 -12 2 -17 -2 -13 -11 3 -9 -2 -12 -15 -10 -17 3 -19 2 -9 -10
10 -12 8 -13 -8 -10 -14 2 -19 -1 -18 -13 2 -9 -5 -25 -15 -36 -10 -10 -16
-23 -13 -28 3 -5 0 -7 -7 -6 -7 2 -13 -3 -14 -9 0 -7 -12 -24 -28 -39 -15 -14
-24 -30 -21 -37 4 -7 4 -9 -1 -5 -11 11 -36 -12 -28 -25 3 -5 2 -7 -4 -4 -5 3
-16 -3 -23 -14 -15 -20 -36 -27 -24 -7 4 7 3 8 -5 4 -6 -4 -9 -16 -6 -26 4
-13 -1 -22 -14 -30 -11 -5 -19 -16 -17 -23 1 -6 1 -9 -1 -4 -3 4 -9 7 -14 7
-6 0 -7 -4 -4 -10 3 -5 2 -10 -4 -10 -5 0 -11 5 -13 12 -3 8 -7 6 -11 -5 -3
-9 -3 -16 1 -16 23 4 24 -3 2 -14 -14 -7 -24 -21 -24 -30 2 -15 -1 -16 -14 -5
-10 8 -13 9 -9 1 10 -17 -3 -45 -19 -39 -8 3 -15 0 -16 -7 0 -7 -2 -16 -3 -22
-2 -5 -3 -14 -4 -19 0 -5 -7 -3 -15 3 -12 10 -17 8 -26 -10 -8 -14 -8 -19 -1
-15 12 8 15 -6 4 -18 -12 -12 -12 -36 0 -36 7 0 5 -5 -3 -10 -12 -8 -10 -10 8
-10 14 0 21 -4 16 -11 -4 -7 0 -9 14 -5 12 4 23 2 28 -5 4 -7 3 -9 -4 -5 -6 3
-13 3 -16 -2 -8 -13 28 -11 36 2 5 8 8 7 8 -1 0 -7 4 -13 10 -13 5 0 6 8 3 18
-4 9 5 4 18 -12 18 -21 26 -24 26 -13 0 9 -4 14 -9 11 -15 -9 -8 3 9 17 10 9
14 9 10 2 -9 -14 22 -33 42 -25 9 3 11 0 6 -9 -6 -11 -5 -11 5 -2 10 10 11 15
1 27 -9 11 -9 16 0 22 7 4 9 3 6 -3 -3 -5 3 -17 15 -27 16 -14 23 -15 32 -5 7
7 7 10 0 6 -6 -3 -11 0 -11 7 0 7 6 13 13 13 7 0 12 -5 11 -10 -1 -5 4 -12 12
-15 8 -2 11 0 8 5 -3 5 0 10 8 10 18 0 19 -9 3 -27 -11 -12 -10 -12 2 -3 8 6
34 10 57 8 23 -1 40 2 37 7 -3 4 -10 6 -15 3 -5 -4 -9 -1 -9 4 0 13 10 14 30
2 8 -6 18 -7 24 -4 5 4 1 10 -10 14 -16 6 -16 8 -2 8 9 1 20 -4 23 -9 5 -8 12
-7 23 2 12 10 14 10 8 0 -4 -7 -2 -12 4 -12 6 0 9 -4 5 -9 -3 -6 4 -8 17 -6
13 3 24 9 26 15 7 21 23 9 17 -12 -6 -22 -5 -22 9 -4 9 10 13 22 11 27 -3 4 0
11 7 15 7 4 10 4 6 -1 -4 -4 -2 -15 5 -23 6 -9 7 -13 1 -9 -6 3 -11 0 -11 -8
0 -11 4 -11 22 1 12 8 26 11 30 7 5 -5 4 -1 -3 8 -9 13 -9 16 3 16 8 0 12 -3
10 -7 -2 -3 0 -12 5 -20 8 -13 11 -13 22 -1 10 10 10 12 1 7 -7 -4 -13 -2 -13
3 0 14 17 14 25 1 3 -5 11 -10 17 -10 7 0 6 5 -1 14 -9 11 -9 16 1 22 7 4 10
4 6 -1 -10 -10 11 -37 23 -29 5 3 6 -3 2 -12 -4 -12 -3 -15 6 -10 7 5 10 18 7
29 -4 18 -1 16 20 -8 14 -17 23 -25 21 -20 -3 6 1 15 8 22 9 8 15 9 17 2 2 -5
10 -11 18 -12 8 -2 22 -7 30 -12 13 -8 13 -7 0 10 -14 17 -13 18 3 12 11 -4
16 -3 12 3 -3 6 -1 10 4 10 6 0 11 -5 11 -11 0 -6 7 -3 16 5 8 9 21 13 27 9 7
-4 5 1 -3 12 -15 17 -14 18 20 1 22 -11 28 -12 18 -3 -10 8 -14 18 -10 22 4 5
2 5 -5 1 -6 -3 -15 -1 -19 5 -4 7 -3 9 4 5 6 -3 13 -2 17 4 3 5 1 10 -6 10 -7
0 -10 2 -7 5 8 9 38 -6 32 -16 -3 -5 2 -6 10 -3 13 5 12 9 -7 24 l-22 19 22
-6 c13 -3 30 -3 38 1 13 5 14 10 4 28 -11 21 -11 22 5 9 9 -8 19 -11 23 -7 3
3 2 6 -4 6 -6 0 -10 11 -9 24 1 16 5 21 12 15 6 -5 14 -6 17 -2 4 3 7 -2 7
-12 0 -10 3 -16 6 -12 10 10 -7 48 -18 41 -7 -4 -8 -2 -4 5 6 9 11 9 21 1 10
-9 16 -6 25 9 6 12 18 21 27 21 22 0 11 10 -16 15 -13 2 -21 -1 -20 -8 1 -7 1
-19 0 -27 -1 -13 -3 -13 -10 -1 -12 18 4 52 22 48 7 -1 11 4 9 11 -1 8 2 11 7
8 8 -6 33 16 28 25 -1 2 4 -2 11 -10 10 -12 12 -9 13 20 0 19 3 28 6 22 8 -20
25 -15 19 5 -5 16 -1 18 29 17 41 -2 50 -9 39 -27 -5 -7 -9 -17 -9 -22 0 -5
-7 -11 -15 -13 -13 -4 -13 -3 0 7 13 10 12 11 -3 6 -10 -3 -21 -6 -23 -6 -2 0
-4 -5 -4 -11 0 -5 4 -8 8 -5 4 2 14 1 22 -4 12 -7 12 -12 2 -22 -14 -14 -16
-32 -3 -23 5 3 12 1 15 -4 4 -5 1 -13 -5 -17 -8 -5 -9 -3 -4 6 5 9 4 11 -4 6
-6 -4 -9 -11 -6 -16 3 -4 2 -10 -2 -13 -5 -2 -3 -2 4 -1 6 2 14 -4 17 -12 9
-24 7 -27 -7 -15 -10 8 -14 7 -14 -4 0 -7 3 -14 6 -13 18 2 31 -3 31 -13 0 -5
-5 -7 -12 -3 -7 4 -8 3 -4 -5 6 -9 11 -9 22 0 12 10 17 9 27 -1 10 -10 9 -11
-3 -5 -9 5 -12 4 -7 -1 5 -5 13 -10 18 -10 5 -1 10 -2 12 -4 11 -9 35 -6 31 5
-4 10 4 11 35 5 33 -6 41 -4 41 7 0 12 4 11 18 -4 9 -10 14 -14 10 -9 -11 15
-10 36 3 36 5 0 8 -4 4 -9 -9 -15 15 -25 28 -12 9 9 7 10 -7 5 -13 -5 -17 -4
-12 4 3 6 2 13 -4 17 -5 3 -10 12 -10 18 0 9 2 9 8 0 6 -10 12 -10 28 2 14 11
15 14 3 9 -20 -6 -34 11 -18 22 8 5 9 3 4 -6 -5 -8 -4 -11 2 -7 12 7 11 56 0
75 -5 6 -5 12 -2 12 4 0 -3 13 -14 28 -16 23 -18 32 -8 42 9 10 9 11 -3 8 -8
-3 -24 2 -35 11 -12 9 -15 10 -7 1 23 -26 12 -34 -14 -9 -17 16 -23 18 -19 7
5 -13 2 -15 -16 -11 -13 4 -18 8 -11 11 6 2 12 8 12 14 0 6 -6 6 -15 -2 -8 -7
-15 -9 -15 -4 0 4 -5 3 -12 -4 -15 -15 -31 -16 -22 0 4 7 3 8 -4 4 -7 -4 -12
-14 -12 -23 0 -9 -3 -13 -7 -9 -8 8 -15 34 -14 61 0 15 -2 16 -8 6 -5 -7 -15
-18 -22 -23 -11 -8 -10 -9 3 -5 9 3 19 0 22 -8 3 -9 -2 -13 -14 -12 -29 2 -32
25 -7 50 12 12 21 26 19 30 -1 5 3 5 9 1 9 -5 10 -2 5 12 -6 15 -5 16 5 7 10
-10 9 -15 -1 -28 -7 -9 -8 -15 -2 -15 6 0 14 9 17 20 4 11 11 17 17 14 6 -4 8
-2 4 4 -10 17 11 62 28 56 8 -3 17 0 22 7 5 8 3 10 -6 4 -8 -5 -11 -3 -8 6 3
8 13 12 23 11 17 -3 17 -2 5 13 -12 14 -12 18 1 26 19 12 29 11 29 -2 0 -5 -4
-8 -9 -4 -5 3 -13 0 -16 -6 -5 -6 0 -10 11 -9 11 1 21 1 24 0 19 -7 39 -7 34
1 -3 5 -11 6 -17 3 -8 -4 -7 -2 1 7 11 12 14 12 22 -1 5 -9 5 -19 -1 -26 -6
-8 -4 -16 8 -25 9 -8 14 -9 10 -2 -4 6 -3 14 2 17 5 4 8 -5 7 -18 -2 -19 1
-23 13 -18 14 5 14 4 2 -11 -12 -15 -12 -17 1 -12 8 3 21 -2 29 -11 11 -14 11
-16 0 -10 -10 7 -12 3 -6 -14 4 -14 3 -20 -3 -16 -5 3 -9 -2 -8 -12 0 -10 -5
-16 -13 -14 -11 2 -12 0 -3 -11 8 -9 8 -17 2 -25 -7 -9 -7 -9 2 -2 17 14 25
13 32 -6 3 -9 2 -12 -5 -9 -5 4 -15 2 -22 -3 -7 -5 -20 -8 -30 -6 -11 1 -16 0
-13 -4 12 -11 46 -12 46 -1 0 5 5 7 10 4 8 -5 7 -11 -1 -21 -9 -11 -9 -14 1
-14 8 0 11 -3 8 -6 -4 -3 -16 0 -28 6 -22 12 -22 12 -4 -13 11 -14 23 -23 27
-20 5 3 4 -4 -2 -15 -9 -17 -8 -19 9 -15 19 5 25 -4 21 -33 -1 -7 6 -15 15
-18 9 -4 14 -13 10 -21 -3 -8 -1 -15 5 -15 6 0 9 -7 5 -15 -3 -8 0 -15 6 -15
6 0 9 -3 6 -6 -7 -6 50 -64 63 -64 5 0 9 -5 9 -11 0 -7 8 -18 18 -25 9 -7 13
-14 7 -14 -6 0 -8 -32 -5 -85 3 -49 1 -85 -4 -85 -5 0 -6 -3 -3 -7 4 -3 2 -12
-3 -18 -7 -8 -4 -17 9 -29 13 -12 21 -14 26 -6 3 5 12 7 18 3 21 -13 33 -11
45 8 9 13 9 20 0 25 -7 5 -8 2 -3 -7 6 -11 5 -12 -5 -2 -8 7 -15 23 -17 35 -2
12 -9 26 -16 30 -8 5 -5 8 8 8 12 0 16 3 9 8 -13 9 -26 42 -16 42 4 0 8 9 9
20 1 13 -3 18 -10 14 -7 -3 -3 2 8 11 11 9 19 21 18 26 -2 5 2 9 7 9 6 0 10 7
10 15 0 13 12 19 32 16 4 0 4 7 1 16 -5 12 -3 14 7 8 10 -6 12 -4 7 8 -3 9 1
18 10 21 8 4 13 13 9 21 -3 9 1 15 10 15 11 0 14 5 10 16 -5 12 -2 15 10 10
13 -5 14 -3 6 6 -11 14 10 43 22 30 4 -3 4 2 0 12 -5 13 -4 17 4 12 8 -5 10
-2 6 8 -4 10 -1 16 7 16 8 0 6 5 -6 13 -13 10 -15 16 -6 21 6 4 9 12 6 17 -4
5 -1 9 4 9 6 0 11 5 11 11 0 5 -4 8 -9 5 -5 -4 -8 2 -7 11 2 9 8 19 14 21 7 2
9 8 6 13 -3 6 -1 16 6 24 8 10 8 15 -1 21 -8 5 -9 3 -4 -6 5 -9 4 -11 -3 -6
-8 4 -8 15 -2 31 6 16 6 27 -2 31 -7 5 -8 3 -3 -6 6 -9 4 -11 -5 -5 -10 6 -10
10 2 19 8 6 13 17 10 25 -3 9 0 11 8 6 7 -4 6 2 -4 16 -9 15 -12 29 -7 38 11
17 3 43 -10 35 -8 -5 -13 10 -6 19 1 2 -4 11 -11 19 -13 16 -6 52 9 42 5 -3 6
2 3 10 -3 9 -10 16 -15 16 -5 0 -9 5 -9 11 0 6 7 8 18 4 13 -5 14 -3 5 6 -6 6
-9 18 -6 25 3 8 0 14 -6 14 -6 0 -11 5 -11 11 0 5 4 8 8 5 4 -2 8 4 8 15 0 10
-3 19 -7 19 -3 0 -6 14 -7 30 0 17 5 30 11 30 7 0 6 4 -3 9 -8 6 -19 7 -25 4
-5 -4 -7 -3 -3 2 4 4 2 15 -5 23 -7 9 -7 13 -1 9 15 -9 9 42 -7 57 -9 8 -10 8
-4 -3 5 -9 4 -12 -2 -8 -6 4 -8 19 -5 33 3 16 1 24 -4 21 -6 -3 -11 3 -11 14
-1 12 3 17 10 13 7 -3 4 1 -7 10 -10 8 -15 20 -11 26 4 7 -2 14 -14 17 -19 5
-25 14 -23 34 1 3 -6 6 -13 6 -12 0 -12 -4 -3 -16 6 -9 -1 -4 -16 12 -28 29
-47 37 -26 12 16 -20 6 -19 -14 1 -9 8 -17 12 -17 7z m-266 -548 c-3 -9 -8
-14 -10 -11 -3 3 -2 9 2 15 9 16 15 13 8 -4z m-128 -94 c3 -5 2 -12 -3 -15 -5
-3 -9 1 -9 9 0 17 3 19 12 6z m182 -251 c1 -13 -4 -20 -15 -20 -15 0 -15 2 -2
10 8 5 11 10 7 10 -5 0 -5 5 -2 10 9 14 11 13 12 -10z m-1453 -116 c3 -8 2
-12 -4 -9 -6 3 -10 10 -10 16 0 14 7 11 14 -7z m976 1 c7 -9 8 -15 2 -15 -5 0
-12 7 -16 15 -3 8 -4 15 -2 15 2 0 9 -7 16 -15z m327 -7 c-3 -8 -6 -5 -6 6 -1
11 2 17 5 13 3 -3 4 -12 1 -19z m-435 -82 c7 4 8 2 4 -5 -9 -13 -26 -5 -25 12
0 9 2 8 6 -1 2 -6 10 -9 15 -6z m-32 -6 c0 -5 -2 -10 -4 -10 -3 0 -8 5 -11 10
-3 6 -1 10 4 10 6 0 11 -4 11 -10z m-493 -20 c3 -10 2 -11 -4 -4 -4 6 -15 14
-23 17 -11 5 -9 6 4 4 11 -1 21 -9 23 -17z m146 3 c-3 -7 -6 -13 -8 -13 -2 0
-5 6 -8 13 -3 8 1 14 8 14 7 0 11 -6 8 -14z m260 2 c-3 -9 -8 -14 -10 -11 -3
3 -2 9 2 15 9 16 15 13 8 -4z m67 0 c0 -12 -19 -12 -23 0 -4 9 -1 12 9 8 7 -3
14 -7 14 -8z m-650 -5 c0 -5 -2 -10 -4 -10 -3 0 -8 5 -11 10 -3 6 -1 10 4 10
6 0 11 -4 11 -10z"/>
<path d="M1293 1325 c0 -8 4 -12 9 -9 5 3 6 10 3 15 -9 13 -12 11 -12 -6z"/>
<path d="M1030 1279 c0 -5 5 -7 10 -4 6 3 10 8 10 11 0 2 -4 4 -10 4 -5 0 -10
-5 -10 -11z"/>
<path d="M1570 1281 c0 -7 -5 -9 -12 -5 -7 5 -8 3 -3 -5 5 -9 10 -10 18 -2 6
6 8 14 4 18 -4 3 -7 1 -7 -6z"/>
<path d="M755 1240 c3 -5 8 -10 11 -10 2 0 4 5 4 10 0 6 -5 10 -11 10 -5 0 -7
-4 -4 -10z"/>
<path d="M375 1120 c6 -9 -25 -15 -50 -10 -5 1 -5 -4 2 -11 10 -10 8 -15 -9
-23 -11 -6 -20 -15 -19 -19 1 -5 -6 -15 -16 -23 -17 -14 -17 -14 3 -5 14 7 24
7 31 0 6 -6 14 -5 23 6 7 8 9 15 5 15 -4 0 5 14 19 31 28 32 33 49 15 49 -5 0
-7 -4 -4 -10z m-23 -42 c-11 -13 -21 -27 -21 -31 1 -15 -6 -15 -19 -1 -11 12
-9 16 13 24 14 6 23 14 20 20 -3 5 2 10 11 10 15 0 15 -3 -4 -22z"/>
<path d="M290 1010 c-8 -5 -10 -10 -5 -11 6 0 1 -4 -10 -9 -17 -7 -17 -9 -3
-9 10 -1 22 8 28 19 12 23 11 24 -10 10z"/>
<path d="M1505 1009 c-4 -6 -5 -12 -2 -15 2 -3 7 2 10 11 7 17 1 20 -8 4z"/>
<path d="M225 980 c-3 -6 1 -7 9 -4 18 7 21 14 7 14 -6 0 -13 -4 -16 -10z"/>
<path d="M242 955 c-7 -8 -9 -15 -4 -15 5 0 15 7 22 15 16 19 -1 19 -18 0z"/>
<path d="M199 933 c-13 -16 -12 -17 4 -4 16 13 21 21 13 21 -2 0 -10 -8 -17
-17z"/>
<path d="M185 880 c-3 -6 1 -7 9 -4 18 7 21 14 7 14 -6 0 -13 -4 -16 -10z"/>
<path d="M1213 875 c0 -8 4 -12 9 -9 4 3 8 9 8 15 0 5 -4 9 -8 9 -5 0 -9 -7
-9 -15z"/>
<path d="M1240 879 c0 -5 5 -7 10 -4 6 3 10 8 10 11 0 2 -4 4 -10 4 -5 0 -10
-5 -10 -11z"/>
<path d="M1129 812 c-11 -14 -11 -15 0 -5 7 6 20 9 27 6 8 -3 14 -3 14 0 0 14
-30 14 -41 -1z"/>
<path d="M1515 671 c-3 -5 -2 -12 3 -15 5 -3 9 1 9 9 0 17 -3 19 -12 6z"/>
<path d="M453 543 c0 -7 4 -13 8 -13 4 0 9 6 12 13 3 8 0 14 -7 14 -7 0 -13
-6 -13 -14z"/>
<path d="M1765 370 c-3 -6 1 -7 9 -4 18 7 21 14 7 14 -6 0 -13 -4 -16 -10z"/>
</g>
</svg>
